RBDS011runT35_grf
version=1
nRows=37
nColumns=19
inDegrees=no
endheader
time	ground_force_r_vx	ground_force_r_vy	ground_force_r_vz	ground_force_r_px	ground_force_r_py	ground_force_r_pz	ground_force_r_mx	ground_force_r_my	ground_force_r_mz	ground_force_l_vx	ground_force_l_vy	ground_force_l_vz	ground_force_l_px	ground_force_l_py	ground_force_l_pz	ground_force_l_mx	ground_force_l_my	ground_force_l_mz
     14.99900000	    224.58726055	    577.99632611	     -5.02190253	      1.95726519	      0.00000000	      1.06988651	      0.00000000	      4.16856305	     -0.00000000	      0.00000000	      0.00000000	      0.00000000	      0.00000000	      0.00000000	      0.00000000	      0.00000000	      0.00000000	      0.00000000
     15.00000000	    221.27992833	    556.52068824	     -5.33907063	      1.95469759	      0.00000000	      1.07040289	      0.00000000	      4.07015444	     -0.00000000	      0.00000000	      0.00000000	      0.00000000	      0.00000000	      0.00000000	      0.00000000	      0.00000000	      0.00000000	      0.00000000
     15.00100000	    217.58460490	    535.98709763	     -5.62161102	      1.95229494	      0.00000000	      1.07098388	      0.00000000	      3.98159859	     -0.00000000	      0.00000000	      0.00000000	      0.00000000	      0.00000000	      0.00000000	      0.00000000	      0.00000000	      0.00000000	      0.00000000
     15.00200000	    213.88928147	    515.45350702	     -5.90415142	      1.94989229	      0.00000000	      1.07156486	      0.00000000	      3.89304274	     -0.00000000	      0.00000000	      0.00000000	      0.00000000	      0.00000000	      0.00000000	      0.00000000	      0.00000000	      0.00000000	      0.00000000
     15.00300000	    210.19395804	    494.91991641	     -6.18669182	      1.94748964	      0.00000000	      1.07214585	      0.00000000	      3.80448689	     -0.00000000	      0.00000000	      0.00000000	      0.00000000	      0.00000000	      0.00000000	      0.00000000	      0.00000000	      0.00000000	      0.00000000
     15.00400000	    206.29681242	    475.09608169	     -6.43987519	      1.94520362	      0.00000000	      1.07276542	      0.00000000	      3.72200405	     -0.00000000	      0.00000000	      0.00000000	      0.00000000	      0.00000000	      0.00000000	      0.00000000	      0.00000000	      0.00000000	      0.00000000
     15.00500000	    202.29875570	    455.62712491	     -6.67838004	      1.94297593	      0.00000000	      1.07340428	      0.00000000	      3.64255771	     -0.00000000	      0.00000000	      0.00000000	      0.00000000	      0.00000000	      0.00000000	      0.00000000	      0.00000000	      0.00000000	      0.00000000
     15.00600000	    198.30069899	    436.15816813	     -6.91688490	      1.94074823	      0.00000000	      1.07404314	      0.00000000	      3.56311137	     -0.00000000	      0.00000000	      0.00000000	      0.00000000	      0.00000000	      0.00000000	      0.00000000	      0.00000000	      0.00000000	      0.00000000
     15.00700000	    194.23131563	    417.07871719	     -7.13845379	      1.93858127	      0.00000000	      1.07469840	      0.00000000	      3.48644146	     -0.00000000	      0.00000000	      0.00000000	      0.00000000	      0.00000000	      0.00000000	      0.00000000	      0.00000000	      0.00000000	      0.00000000
     15.00800000	    190.01927898	    398.77827796	     -7.32615077	      1.93653579	      0.00000000	      1.07538646	      0.00000000	      3.41532443	     -0.00000000	      0.00000000	      0.00000000	      0.00000000	      0.00000000	      0.00000000	      0.00000000	      0.00000000	      0.00000000	      0.00000000
     15.00900000	    185.80724233	    380.47783872	     -7.51384775	      1.93449031	      0.00000000	      1.07607451	      0.00000000	      3.34420739	     -0.00000000	      0.00000000	      0.00000000	      0.00000000	      0.00000000	      0.00000000	      0.00000000	      0.00000000	      0.00000000	      0.00000000
     15.01000000	    181.59520568	    362.17739948	     -7.70154473	      1.93244483	      0.00000000	      1.07676257	      0.00000000	      3.27309035	     -0.00000000	      0.00000000	      0.00000000	      0.00000000	      0.00000000	      0.00000000	      0.00000000	      0.00000000	      0.00000000	      0.00000000
     15.01100000	    177.25901108	    345.12913582	     -7.83450058	      1.93058585	      0.00000000	      1.07748935	      0.00000000	      3.20952335	     -0.00000000	      0.00000000	      0.00000000	      0.00000000	      0.00000000	      0.00000000	      0.00000000	      0.00000000	      0.00000000	      0.00000000
     15.01200000	    172.92281648	    328.08087216	     -7.96745642	      1.92872687	      0.00000000	      1.07821614	      0.00000000	      3.14595634	     -0.00000000	      0.00000000	      0.00000000	      0.00000000	      0.00000000	      0.00000000	      0.00000000	      0.00000000	      0.00000000	      0.00000000
     15.01300000	    168.58662187	    311.03260850	     -8.10041226	      1.92686788	      0.00000000	      1.07894293	      0.00000000	      3.08238934	     -0.00000000	      0.00000000	      0.00000000	      0.00000000	      0.00000000	      0.00000000	      0.00000000	      0.00000000	      0.00000000	      0.00000000
     15.01400000	    164.22659706	    294.86076622	     -8.19617775	      1.92513402	      0.00000000	      1.07968757	      0.00000000	      3.02335847	     -0.00000000	      0.00000000	      0.00000000	      0.00000000	      0.00000000	      0.00000000	      0.00000000	      0.00000000	      0.00000000	      0.00000000
     15.01500000	    159.85465713	    279.12713464	     -8.27334805	      1.92346272	      0.00000000	      1.08044113	      0.00000000	      2.96659568	     -0.00000000	      0.00000000	      0.00000000	      0.00000000	      0.00000000	      0.00000000	      0.00000000	      0.00000000	      0.00000000	      0.00000000
     15.01600000	    155.48271720	    263.39350306	     -8.35051836	      1.92179142	      0.00000000	      1.08119470	      0.00000000	      2.90983289	     -0.00000000	      0.00000000	      0.00000000	      0.00000000	      0.00000000	      0.00000000	      0.00000000	      0.00000000	      0.00000000	      0.00000000
     15.01700000	    151.12705206	    248.11169813	     -8.40967243	      1.92018205	      0.00000000	      1.08195283	      0.00000000	      2.85510942	     -0.00000000	      0.00000000	      0.00000000	      0.00000000	      0.00000000	      0.00000000	      0.00000000	      0.00000000	      0.00000000	      0.00000000
     15.01800000	    146.80393650	    233.73354653	     -8.43279402	      1.91869653	      0.00000000	      1.08272009	      0.00000000	      2.80446458	     -0.00000000	      0.00000000	      0.00000000	      0.00000000	      0.00000000	      0.00000000	      0.00000000	      0.00000000	      0.00000000	      0.00000000
     15.01900000	    142.48082093	    219.35539492	     -8.45591561	      1.91721100	      0.00000000	      1.08348735	      0.00000000	      2.75381975	     -0.00000000	      0.00000000	      0.00000000	      0.00000000	      0.00000000	      0.00000000	      0.00000000	      0.00000000	      0.00000000	      0.00000000
     15.02000000	    138.15770536	    204.97724332	     -8.47903720	      1.91572548	      0.00000000	      1.08425461	      0.00000000	      2.70317491	     -0.00000000	      0.00000000	      0.00000000	      0.00000000	      0.00000000	      0.00000000	      0.00000000	      0.00000000	      0.00000000	      0.00000000
     15.02100000	    133.96184472	    191.97395839	     -8.45236960	      1.91442086	      0.00000000	      1.08502180	      0.00000000	      2.65803981	     -0.00000000	      0.00000000	      0.00000000	      0.00000000	      0.00000000	      0.00000000	      0.00000000	      0.00000000	      0.00000000	      0.00000000
     15.02200000	    129.76598408	    178.97067346	     -8.42570200	      1.91311625	      0.00000000	      1.08578899	      0.00000000	      2.61290471	     -0.00000000	      0.00000000	      0.00000000	      0.00000000	      0.00000000	      0.00000000	      0.00000000	      0.00000000	      0.00000000	      0.00000000
     15.02300000	    125.57012344	    165.96738853	     -8.39903441	      1.91181163	      0.00000000	      1.08655619	      0.00000000	      2.56776961	     -0.00000000	      0.00000000	      0.00000000	      0.00000000	      0.00000000	      0.00000000	      0.00000000	      0.00000000	      0.00000000	      0.00000000
     15.02400000	    121.50591261	    153.87973521	     -8.34343392	      1.91062258	      0.00000000	      1.08731404	      0.00000000	      2.52596086	     -0.00000000	      0.00000000	      0.00000000	      0.00000000	      0.00000000	      0.00000000	      0.00000000	      0.00000000	      0.00000000	      0.00000000
     15.02500000	    117.50752667	    142.24989768	     -8.27336698	      1.90949131	      0.00000000	      1.08806723	      0.00000000	      2.48581527	     -0.00000000	      0.00000000	      0.00000000	      0.00000000	      0.00000000	      0.00000000	      0.00000000	      0.00000000	      0.00000000	      0.00000000
     15.02600000	    113.50914074	    130.62006015	     -8.20330004	      1.90836004	      0.00000000	      1.08882041	      0.00000000	      2.44566969	     -0.00000000	      0.00000000	      0.00000000	      0.00000000	      0.00000000	      0.00000000	      0.00000000	      0.00000000	      0.00000000	      0.00000000
     15.02700000	    109.59665977	    119.44099405	     -8.12144014	      1.90728325	      0.00000000	      1.08956440	      0.00000000	      2.40704357	     -0.00000000	      0.00000000	      0.00000000	      0.00000000	      0.00000000	      0.00000000	      0.00000000	      0.00000000	      0.00000000	      0.00000000
     15.02800000	    105.85598874	    109.16347079	     -8.01599430	      1.90631542	      0.00000000	      1.09029002	      0.00000000	      2.37145638	     -0.00000000	      0.00000000	      0.00000000	      0.00000000	      0.00000000	      0.00000000	      0.00000000	      0.00000000	      0.00000000	      0.00000000
     15.02900000	    102.11531771	     98.88594754	     -7.91054846	      1.90534758	      0.00000000	      1.09101563	      0.00000000	      2.33586919	     -0.00000000	      0.00000000	      0.00000000	      0.00000000	      0.00000000	      0.00000000	      0.00000000	      0.00000000	      0.00000000	      0.00000000
     15.03000000	     98.37464668	     88.60842428	     -7.80510262	      1.90437975	      0.00000000	      1.09174125	      0.00000000	      2.30028199	     -0.00000000	      0.00000000	      0.00000000	      0.00000000	      0.00000000	      0.00000000	      0.00000000	      0.00000000	      0.00000000	      0.00000000
     15.03100000	     94.94055114	     79.64381232	     -7.67335588	      1.90356354	      0.00000000	      1.09242667	      0.00000000	      2.26890390	     -0.00000000	      0.00000000	      0.00000000	      0.00000000	      0.00000000	      0.00000000	      0.00000000	      0.00000000	      0.00000000	      0.00000000
     15.03200000	     91.50645560	     70.67920036	     -7.54160914	      1.90274733	      0.00000000	      1.09311209	      0.00000000	      2.23752580	     -0.00000000	      0.00000000	      0.00000000	      0.00000000	      0.00000000	      0.00000000	      0.00000000	      0.00000000	      0.00000000	      0.00000000
     15.03300000	     88.07236007	     61.71458840	     -7.40986240	      1.90193113	      0.00000000	      1.09379751	     -0.00000000	      2.20614770	     -0.00000000	      0.00000000	      0.00000000	      0.00000000	      0.00000000	      0.00000000	      0.00000000	      0.00000000	      0.00000000	      0.00000000
     15.03400000	     84.86698059	     53.58794058	     -7.26693362	      1.90120718	      0.00000000	      1.09444872	     -0.00000000	      2.17738802	     -0.00000000	      0.00000000	      0.00000000	      0.00000000	      0.00000000	      0.00000000	      0.00000000	      0.00000000	      0.00000000	      0.00000000
     15.03500000	     81.77595915	     45.88027482	     -7.11841381	      1.90052937	      0.00000000	      1.09508283	     -0.00000000	      2.14993755	     -0.00000000	      0.00000000	      0.00000000	      0.00000000	      0.00000000	      0.00000000	      0.00000000	      0.00000000	      0.00000000	      0.00000000
